<svg width="144" height="34" viewBox="0 0 144 34" fill="none" xmlns="http://www.w3.org/2000/svg">
<g style="mix-blend-mode:difference" clip-path="url(#clip0_1_397)">
<path fill-rule="evenodd" clip-rule="evenodd" d="M8.86268 2.125V34H0.350098V2.125H8.86268Z" fill="white"/>
<path fill-rule="evenodd" clip-rule="evenodd" d="M13.1191 2.125H31.2084C37.0851 2.125 41.8491 6.88197 41.8491 12.75C41.8491 18.6181 37.0851 23.375 31.2084 23.375H21.6317V34H13.1191V2.125ZM21.6317 14.875H31.2084C32.3838 14.875 33.3366 13.9236 33.3366 12.75C33.3366 11.5764 32.3838 10.625 31.2084 10.625H21.6317V14.875Z" fill="white"/>
<path fill-rule="evenodd" clip-rule="evenodd" d="M73.7714 2.125V18.5938C73.7714 22.408 76.8679 25.5 80.6878 25.5C84.5077 25.5 87.6044 22.408 87.6044 18.5938V2.125H96.1172V18.5938C96.1172 27.1024 89.2092 34 80.6878 34C72.1666 34 65.2588 27.1024 65.2588 18.5938V2.125H73.7714Z" fill="white"/>
<path fill-rule="evenodd" clip-rule="evenodd" d="M45.0414 17C45.0414 8.78475 51.711 2.125 59.9384 2.125H62.0665V10.625H59.9384C56.4123 10.625 53.554 13.4792 53.554 17V18.0625C53.554 26.8645 46.4079 34 37.5928 34H36.5288V25.5H37.5928C41.7066 25.5 45.0414 22.1701 45.0414 18.0625V17Z" fill="white"/>
<path d="M144 3.1875C144 4.94791 142.571 6.375 140.807 6.375C139.045 6.375 137.616 4.94791 137.616 3.1875C137.616 1.42709 139.045 0 140.807 0C142.571 0 144 1.42709 144 3.1875Z" fill="white"/>
<path d="M105.257 34L109.319 17.0154L112.339 27.2334C114.139 33.3277 122.785 33.3277 124.586 27.2334L127.605 17.0154L131.667 34H140.419L134.032 7.29257C132.513 0.941331 123.55 0.706171 121.699 6.96908L118.463 17.9208L115.226 6.96909C113.375 0.706208 104.411 0.941297 102.892 7.29257L96.5054 34H105.257Z" fill="white"/>
</g>
<defs>
<clipPath id="clip0_1_397">
<rect width="143.65" height="34" fill="white" transform="translate(0.350098)"/>
</clipPath>
</defs>
</svg>
